<svg id="logo.png" xmlns="http://www.w3.org/2000/svg" width="38" height="38" viewBox="0 0 38 38">
  <defs>
    <style>
      .cls-1 {
        fill: #fff;
      }

      .cls-2 {
        fill: #278ece;
        fill-rule: evenodd;
      }
    </style>
  </defs>
  <rect id="back" class="cls-1" width="38" height="38" rx="3" ry="3"/>
  <path id="E" class="cls-2" d="M423.094,33.431h9.117a0.784,0.784,0,0,1,.563.229,0.731,0.731,0,0,1,.237.543v4.032a0.729,0.729,0,0,1-.237.544,0.783,0.783,0,0,1-.563.229H416.789a0.781,0.781,0,0,1-.563-0.229,0.728,0.728,0,0,1-.236-0.544V19.762a0.73,0.73,0,0,1,.236-0.543,0.782,0.782,0,0,1,.563-0.229h15.186a0.781,0.781,0,0,1,.562.229,0.731,0.731,0,0,1,.237.543v4.032a0.729,0.729,0,0,1-.237.543,0.78,0.78,0,0,1-.562.229h-8.881v1.8h8.229a0.784,0.784,0,0,1,.563.229,0.73,0.73,0,0,1,.237.543v3.718a0.729,0.729,0,0,1-.237.543,0.782,0.782,0,0,1-.563.229h-8.229v1.8Z" transform="translate(-405 -10)"/>
</svg>
